<svg width="288" height="288" viewBox="0 0 288 288" fill="none" xmlns="http://www.w3.org/2000/svg">
<circle cx="144" cy="144" r="144" fill="#BDBDBD"/>
<circle cx="144" cy="144" r="144" fill="url(#paint0_linear_2054_13)" fill-opacity="0.4"/>
<circle cx="144" cy="144" r="137" fill="black"/>
<g clip-path="url(#clip0_2054_13)">
<path fill-rule="evenodd" clip-rule="evenodd" d="M197 91.6271L175.5 115.073H131.493C108.23 115.286 89.0467 115.312 88.8644 115.13C88.6816 114.948 93.7509 109.585 100.129 103.213L111.726 91.6271L142.909 91.6266L197 91.6271ZM173.827 160.184V198.185H128.91H83.9922V160.556C83.9922 139.86 84.1312 122.788 84.3019 122.618C84.472 122.448 104.685 122.281 129.219 122.246L173.827 122.183V160.184ZM201.315 148.409V177.364L185 192C185 192 181.158 195.655 181.027 195.524C181.089 182.5 181.089 158.754 181.089 158.754L181.089 120.5L190 110.5L201.315 98.5L201.315 148.409Z" fill="#ACACAC"/>
<path fill-rule="evenodd" clip-rule="evenodd" d="M1329.87 901.008C1306.66 924.194 1287.18 943.164 1286.58 943.164C1285.98 943.164 1285.29 880.895 1285.03 804.79L1283 674.642L1329.87 628.343L1371.12 582.56L1371.59 720.705L1372.07 858.85L1329.87 901.008ZM1261.18 812.842C1261.5 903.804 1261.03 951.227 1259.81 951.579C1258.79 951.874 1191.39 952.598 1110.03 953.19L962.108 954.266L961.622 815.225C961.353 738.752 961.483 675.836 961.908 675.412C962.333 674.988 1029.73 674.642 1111.69 674.642H1260.69L1261.18 812.842ZM934.63 907.236C934.923 930.253 934.695 949.837 934.126 950.753C933.532 951.709 863.729 952.926 770.874 953.596L608.66 954.77L651.328 911.466L693.996 868.163L763.563 867.204C801.825 866.676 855.848 866.05 883.614 865.815L934.1 865.385L934.63 907.236ZM936.09 1107.98V1237.61H765.418H594.746V1108.94V980.269L638.806 979.737C663.039 979.445 739.84 979.013 809.477 978.778L936.09 978.35V1107.98ZM1043.69 1056.61V1134.87L1002.87 1175.58L962.062 1216.29V1097.32V978.35H1002.87H1043.69V1056.61ZM569.171 1196.6L568.639 1237.07L420.156 1238.44C338.49 1239.19 271.147 1239.28 270.507 1238.64C269.865 1238 287.661 1219.17 310.052 1196.8L350.765 1156.13L460.233 1156.13L569.702 1156.13L569.171 1196.6ZM568.774 1396.8V1530.21H411.088H253.402V1398.11C253.402 1325.45 253.89 1265.52 254.489 1264.92C255.087 1264.33 326.045 1263.74 412.175 1263.62L568.774 1263.4V1396.8ZM680.082 1350.13V1436.72L637.485 1479.21C614.054 1502.59 594.509 1521.33 594.049 1520.87C593.587 1520.4 593.685 1462.32 594.266 1391.78L595.323 1263.54H637.702H680.082V1350.13Z" fill="#ACACAC"/>
<rect x="113.023" y="144.988" width="35.9506" height="30.3333" fill="black"/>
</g>
<defs>
<linearGradient id="paint0_linear_2054_13" x1="144" y1="162.5" x2="144" y2="226" gradientUnits="userSpaceOnUse">
<stop stop-opacity="0"/>
<stop offset="1"/>
</linearGradient>
<clipPath id="clip0_2054_13">
<rect width="208.886" height="182" fill="white" transform="translate(40 45)"/>
</clipPath>
</defs>
</svg>
